<svg enable-background="new 0 0 16 16" viewBox="0 0 16 16" xmlns="http://www.w3.org/2000/svg"><circle cx="8" cy="8" fill="#fff" r="8"/><path d="m15.06 5.72-4.49.21c.17.6.27 1.31.27 2.07 0 .41-.04.81-.09 1.18.39-.09.77-.25 1.07-.52l.26-.23c.33-.3.74-.49 1.17-.57.7-.12 1.32-.56 1.66-1.18l.34-.63c.09-.16-.02-.34-.19-.33z"/><path d="m.74 6.04.34.63c.35.63.96 1.06 1.66 1.18.44.07.84.27 1.17.57l.26.23c.37.34.83.55 1.33.6l.8.08c.47.05.93-.21 1.13-.64l.27-.57c.14-.3-.01-.66-.32-.78l-.21-.08c-.17-.06-.3-.2-.35-.38l-.05-.15c-.13-.45-.53-.77-1-.79l-4.83-.22c-.17-.01-.28.17-.2.32z"/><path d="m8.49 4.12c0-.01 0 0 0 0h-1.15s0 0-.01 0c-.48 0-.92.45-1.23 1.17.46.11.8.32 1 .6.15-.19.33-.31.51-.31.6 0 1.09 1.08 1.09 2.42s-.48 2.42-1.08 2.42c-.26 0-.5-.22-.68-.56-.39.08-.75.12-1.08.1.3 1.15.85 1.92 1.48 1.92h.01 1.15c.95-.01 1.72-1.74 1.72-3.88-.01-2.14-.78-3.88-1.73-3.88z"/></svg>