<svg viewBox="0 0 232.88 155.78" xmlns="http://www.w3.org/2000/svg"><g fill="#FFF3CD"><path d="m232 18.2-41.62 3.9c-2.66.25-5.1 1.59-6.74 3.71-.64.83.01 2.04 1.06 1.95l40-3.46c2.26-.2 4.39-1.18 5.99-2.79l1.94-1.94c.53-.53.11-1.43-.64-1.36z"/><path d="m222.03 27.88-39.17 2.67c-1.53.1-2.97.76-4.05 1.84-.48.48-.13 1.29.55 1.28l36.35-.89c1.8-.04 3.54-.7 4.93-1.85l1.96-1.64c.6-.5.21-1.47-.57-1.41z"/><path d="m211.49 35.93h-33.57c-1.63 0-3.21.62-4.41 1.72-.5.47-.19 1.31.5 1.33l32.05.89c1.34.04 2.67-.34 3.79-1.09l2.08-1.39c.66-.44.35-1.47-.44-1.47z"/><path d="m195.97 41.9-23.47-.84c-1.53-.05-3.04.44-4.25 1.38l-.03.02c-.57.45-.3 1.37.43 1.43l21.89 1.86c1.66.14 3.31-.36 4.61-1.4l1.29-1.03c.58-.46.27-1.4-.47-1.42z"/><path d="m184.44 47.84-18.14-1.88c-1.24-.13-2.48.19-3.51.9l-.39.27c-.45.31-.29 1.02.26 1.1l16.8 2.4c1.71.24 3.44-.2 4.82-1.23l.49-.37c.48-.36.27-1.13-.33-1.19z"/><path d="m170.55 52.03-10-2c-1.08-.22-2.21-.05-3.18.48l-.4.21c-.52.28-.46 1.04.09 1.24l7.95 2.86c1.94.7 4.09.35 5.72-.91l.22-.17c.65-.51.41-1.55-.4-1.71z"/><path d="m163.11 57.46-8.5-4.16c-.79-.38-1.7-.42-2.51-.11l-.78.3c-.53.2-.64.91-.2 1.27l5.58 4.55c1.73 1.41 4.2 1.5 6.03.22l.52-.36c.62-.44.55-1.38-.13-1.71z"/><path d="m149.17 55.99c-.8-.8-1.97-1.11-3.06-.82l-1.02.27c-.09.02-.16.08-.23.13.04-.87.08-1.76.1-2.64.11-.03.23-.03.34-.07l.89-.28c.59-.19.66-1 .1-1.28l-1.29-.64c0-.22 0-.44 0-.66 0-.64-.01-1.27-.02-1.9l2.2.92c2.18.91 4.66.81 6.76-.28l1.61-.84c.65-.34.54-1.29-.16-1.48l-10.58-2.86c-.04-.71-.09-1.42-.14-2.13l12.02 2.88c2.33.56 4.8.04 6.71-1.41l1.61-1.22c.58-.44.32-1.36-.4-1.43l-20.22-2.02c-.08-.72-.16-1.44-.25-2.14l20.86 1.79c2.48.21 4.94-.62 6.79-2.29l.81-.74c.54-.49.2-1.39-.54-1.39h-25.67c-.91 0-1.78.31-2.5.85-.17-1.2-.37-2.39-.58-3.55l2.13-2.02c1.9-1.8 4.36-2.88 6.97-3.08l25.92-1.92c2.4-.18 4.6-1.43 5.98-3.41l.82-1.18c.39-.56-.06-1.33-.74-1.25l-35.81 3.91c-2.4.26-4.65 1.28-6.43 2.9l-.13.12c-3.81-14.84-10.9-24.82-19-24.82-.67 0-1.34.08-2 .21 11.21 2.3 20 23.7 20 49.79s-8.79 47.49-20 49.78c.66.14 1.33.22 2 .22 9.34 0 17.32-13.24 20.51-31.9.2.01.4.01.6-.02l2.28-.38c.74-.12 1.14-.93.8-1.59l-2.71-5.31c.13-1.36.24-2.73.32-4.13l4.06 5.89c1.44 2.08 4.2 2.76 6.43 1.59.66-.35.79-1.23.27-1.76l-6.4-6.4z"/><path d="m151.68 28.61c-1.55.11-3.01.74-4.16 1.79-.43.4-.15 1.12.44 1.12l24.79-.21c2.25-.02 4.39-.99 5.9-2.67l.57-.64c.48-.54.06-1.38-.65-1.33z"/><path d="m109 0c-7.11 0-13.42 7.67-17.44 19.55.89.44 1.73.99 2.48 1.64l5.5 4.73c1.49 1.28 2.61 2.91 3.32 4.7 1.9-9.38 5.13-17.03 9.14-21.69v4.07c0 2.66-.17 5.33-.5 7.97l-1.23 9.84c-.17 1.38.3 2.77 1.29 3.75.28.28.44.66.44 1.06v2.71c-1.47.64-2.74 2.2-3.64 4.34-1.11-.55-2.33-.86-3.6-.86h-2.5c-1.52 0-2.76-1.23-2.76-2.76v-2.9c0-2.13-.9-4.17-2.47-5.6l-6.29-5.74c-1.78-1.63-4.03-2.64-6.43-2.9l-35.81-3.91c-.68-.07-1.14.69-.74 1.25l.82 1.18c1.38 1.98 3.57 3.23 5.98 3.41l25.92 1.92c2.61.19 5.07 1.28 6.97 3.08l3.94 3.73c1.51 1.43 2.37 3.43 2.37 5.51v6.26c0 1.09.49 2.13 1.34 2.82.89.73 2.07.99 3.19.71l3.28-.82c1.89-.47 3.87-.23 5.57.64-.08.75-.12 1.52-.12 2.31 0 5.67 2.13 10.41 5 11.67v2.71c0 .4-.16.78-.44 1.06-.98.98-1.46 2.37-1.29 3.75l1.23 9.84c.33 2.64.5 5.3.5 7.97v4.07c-3.97-4.61-7.18-12.17-9.09-21.43-4.23 1.96-8.81 3.05-13.48 3.22 3.65 16.11 11.04 27.14 19.56 27.14 12.15 0 22-22.39 22-50s-9.86-50-22.01-50zm16.81 63.2c-.58-1.27-1.71-2.19-3.07-2.51-.39-.09-.72-.33-.93-.67l-2.04-3.3c-.17-.28-.42-.47-.69-.59.38-1.18.66-2.49.8-3.88h2.34c.31 0 .61.16.83.44.77.98 1.86 1.46 2.95 1.29l.93-.15c-.11 3.5-.38 6.89-.79 10.13l-.34-.75zm.19-15.69c-1.09-.17-2.17.3-2.95 1.29-.22.28-.52.44-.83.44h-2.25c-.05-1.61-.28-3.12-.64-4.5.17-.12.32-.27.44-.45l2.04-3.3c.21-.34.54-.58.93-.67 1.36-.32 2.49-1.25 3.07-2.51l.44-.96c.4 3.46.65 7.08.72 10.82l-.97-.15zm-11.01-40.87c4.3 3.89 7.85 11.82 9.95 22.02l-4.63 5.75c-.87 1.09-1.2 2.51-.88 3.87.09.39.03.79-.18 1.13l-1.23 1.99c-.83-1.49-1.87-2.56-3.03-3.07v-2.71c0-.4.16-.78.44-1.06.98-.98 1.46-2.37 1.29-3.75l-1.23-9.84c-.33-2.64-.5-5.3-.5-7.97zm-5.21 43.36c0-.11 0-.23 0-.34l3.85 3.23c.5.42 1.26.15 1.39-.49.29-1.47-.1-3-1.07-4.15l-3.04-3.58c-.08-.1-.18-.18-.26-.28.68-1.9 1.7-3.12 2.84-3.12 2.05 0 3.71 3.91 3.71 8.73s-1.66 8.73-3.71 8.73-3.71-3.91-3.71-8.73zm5.21 43.36v-6.36c0-2.66.17-5.33.5-7.97l1.23-9.84c.17-1.38-.3-2.77-1.29-3.75-.28-.28-.44-.66-.44-1.06v-2.71c1.02-.45 1.95-1.34 2.73-2.56l1.53 2.48c.21.34.27.75.18 1.13-.32 1.36 0 2.78.88 3.87l4.46 5.54c-2.11 9.82-5.59 17.44-9.78 21.23z"/><path d="m49.23 25.93c-1.63-2.12-4.07-3.46-6.74-3.71l-41.61-3.9c-.75-.07-1.17.83-.64 1.36l1.94 1.94c1.61 1.61 3.73 2.59 5.99 2.79l40 3.46c1.05.09 1.71-1.11 1.06-1.95z"/><path d="m54.07 32.51c-1.08-1.08-2.52-1.74-4.05-1.84l-39.17-2.67c-.77-.05-1.16.92-.57 1.41l1.96 1.64c1.39 1.16 3.12 1.81 4.93 1.85l36.35.89c.67.02 1.02-.8.55-1.28z"/><path d="m59.37 37.77c-1.2-1.11-2.77-1.72-4.41-1.72h-33.57c-.79 0-1.1 1.03-.44 1.47l2.08 1.39c1.12.75 2.44 1.13 3.79 1.09l32.05-.89c.69-.02 1-.86.5-1.33z"/><path d="m64.65 42.58-.03-.02c-1.21-.95-2.71-1.44-4.25-1.38l-23.47.84c-.74.03-1.05.96-.47 1.42l1.29 1.03c1.3 1.04 2.95 1.54 4.61 1.4l21.89-1.86c.72-.06 1-.98.43-1.43z"/><path d="m70.48 47.25-.39-.27c-1.02-.71-2.27-1.03-3.51-.9l-18.14 1.88c-.6.06-.81.83-.33 1.19l.49.37c1.38 1.03 3.11 1.48 4.82 1.23l16.8-2.4c.55-.08.71-.79.26-1.1z"/><path d="m75.9 50.84-.4-.21c-.97-.52-2.1-.69-3.18-.48l-10 2c-.81.16-1.06 1.21-.4 1.71l.22.17c1.62 1.26 3.78 1.61 5.72.91l7.95-2.86c.56-.2.61-.96.09-1.24z"/><path d="m81.56 53.61-.78-.3c-.82-.31-1.73-.27-2.51.11l-8.5 4.16c-.68.33-.76 1.28-.13 1.71l.52.36c1.83 1.28 4.29 1.19 6.03-.22l5.58-4.55c.44-.36.33-1.06-.2-1.27z"/><path d="m87.79 55.56-1.02-.27c-1.09-.29-2.26.02-3.06.82l-6.4 6.4c-.53.53-.39 1.41.27 1.76 2.24 1.17 5 .49 6.43-1.59l4.17-6.04c.28-.4.07-.95-.4-1.08z"/><path d="m91.66 66.41 2.64-8.61c.23-.74-.33-1.48-1.1-1.48h-.82c-1 0-1.91.56-2.37 1.45l-4.32 8.46c-.34.67.06 1.47.8 1.59l2.28.38c1.27.21 2.51-.55 2.89-1.79z"/><path d="m98.32 55.9c-.95.25-1.66 1.05-1.81 2.02l-1.2 7.86c-.14.92.75 1.65 1.62 1.33l1.26-.46c1.38-.5 2.3-1.82 2.3-3.29v-6.46c0-.8-.76-1.39-1.54-1.18l-.65.17z"/><path d="m102.58 55.82.55 7.19c.06.73.85 1.17 1.5.83l.56-.3c1.32-.7 1.93-2.27 1.42-3.68l-1.72-4.73c-.21-.58-.86-.88-1.44-.66s-.91.76-.87 1.36z"/><path d="m81.2 28.72-26.89-1.94c-.72-.05-1.13.8-.65 1.33l.57.64c1.5 1.68 3.64 2.65 5.9 2.67l24.79.21c.59 0 .87-.72.44-1.12-1.14-1.05-2.61-1.68-4.16-1.79z"/><path d="m86.5 33.56h-25.67c-.73 0-1.08.9-.54 1.39l.81.74c1.85 1.67 4.31 2.5 6.79 2.29l21.42-1.83c.5-.04.75-.62.44-1.02-.79-.99-1.99-1.57-3.25-1.57z"/><path d="m90.07 38.18-21.79 2.18c-.72.07-.98.99-.4 1.43l1.61 1.22c1.91 1.45 4.37 1.97 6.71 1.41l14.38-3.45c.4-.1.68-.45.68-.86v-.87c0-.64-.55-1.13-1.18-1.07z"/><path d="m91.25 46.03v-1.74c0-.75-.71-1.29-1.43-1.1l-12.33 3.33c-.7.19-.81 1.15-.16 1.48l1.61.84c2.1 1.09 4.58 1.19 6.76.28l4.83-2.01c.44-.18.72-.61.72-1.08z"/><path d="m86.7 52.69.89.28c1.4.44 2.92.15 4.06-.77l1.39-1.13c.42-.34.45-.98.07-1.36l-.56-.56c-.28-.28-.71-.35-1.06-.17l-4.88 2.44c-.56.28-.49 1.09.1 1.28z"/><path d="m96.66 51-.68.15c-.47.11-.9.36-1.21.74l-.93 1.11c-.42.5-.04 1.26.61 1.22l1.22-.06c1.02-.05 1.83-.9 1.83-1.93v-.56c0-.44-.41-.77-.84-.67z"/><path d="m100.1 53.63 1.04-.32c.74-.23 1.14-1.03.87-1.75l-.2-.54c-.18-.5-.71-.79-1.22-.67l-.52.11c-.48.11-.83.54-.83 1.03v1.51c0 .44.43.76.85.63z"/><path d="m104.75 52.11.53-.41c.58-.45.64-1.32.11-1.84l-.03-.03c-.45-.45-1.11-.62-1.73-.45-.4.11-.61.55-.45.94l.65 1.55c.15.37.61.49.92.24z"/><path d="m54.14 135.72h-3.2v5.91h-2.24v-5.91h-3.18v-1.79h8.63v1.79z"/><path d="m62.81 141.63-2.04-2.43h-2.27v2.43h-2.23v-7.7h5.4c1.97 0 3.5.87 3.5 2.63 0 1.29-.81 2.1-2.02 2.45l2.27 2.62zm-1.3-4.06c.8 0 1.39-.22 1.39-.97s-.58-.97-1.39-.97h-3.01v1.94z"/><path d="m74.45 140.16h-4.22l-.73 1.47h-2.35l3.98-7.7h2.45l3.98 7.7h-2.39l-.73-1.47zm-.78-1.6-1.33-2.73-1.34 2.73z"/><path d="m88.7 133.93v7.7h-1.97l-4.97-5.06v5.06h-2.17v-7.7h2.38l4.57 4.71v-4.71h2.17z"/><path d="m100.12 139.22c0 1.58-1.46 2.66-4.26 2.66-1.98 0-3.64-.54-4.85-1.51l1.18-1.39c.91.77 2.18 1.2 3.72 1.2 1.32 0 1.98-.24 1.98-.75s-.62-.66-2.2-.79c-2.29-.2-4.37-.7-4.37-2.42s1.78-2.55 4.22-2.55c1.65 0 3.17.4 4.22 1.14l-1.13 1.4c-.86-.61-1.89-.85-3.09-.86-.9 0-1.99.14-1.99.69 0 .52.89.58 2.27.69 2.52.21 4.3.7 4.3 2.48z"/><path d="m111.63 133.93v7.7h-2.24v-2.98h-4.62v2.98h-2.24v-7.7h2.24v2.87h4.62v-2.87z"/><path d="m123.41 133.93v4.07c0 2.34-1.6 3.88-4.47 3.88s-4.48-1.54-4.48-3.88v-4.07h2.24v3.89c0 1.34.75 2.21 2.23 2.21s2.22-.87 2.22-2.21v-3.89h2.25z"/><path d="m136.88 133.93v7.7h-2.23v-4.92l-3.07 3.76h-.11l-3.07-3.76v4.92h-2.17v-7.7h2.45l2.89 3.7 2.92-3.7z"/><path d="m146.23 140.16h-4.22l-.73 1.47h-2.35l3.98-7.7h2.45l3.98 7.7h-2.39l-.73-1.47zm-.78-1.6-1.33-2.73-1.34 2.73z"/><path d="m160.48 133.93v7.7h-1.97l-4.97-5.06v5.06h-2.17v-7.7h2.38l4.57 4.71v-4.71h2.17z"/><path d="m163.42 141.63v-7.7h2.24v7.7z"/><path d="m177.06 139.22c0 1.58-1.46 2.66-4.26 2.66-1.98 0-3.64-.54-4.85-1.51l1.18-1.39c.91.77 2.18 1.2 3.72 1.2 1.32 0 1.98-.24 1.98-.75s-.62-.66-2.2-.79c-2.29-.2-4.37-.7-4.37-2.42s1.78-2.55 4.22-2.55c1.65 0 3.17.4 4.22 1.14l-1.13 1.4c-.86-.61-1.89-.85-3.09-.86-.9 0-1.99.14-1.99.69 0 .52.89.58 2.27.69 2.52.21 4.3.7 4.3 2.48z"/><path d="m187.38 135.72h-3.2v5.91h-2.24v-5.91h-3.18v-1.79h8.63v1.79z"/><path d="m84.96 154.66h-2.22l-.37 1.06h-1.17l2.01-5.59h1.3l2.01 5.59h-1.18l-.37-1.06zm-1.11-3.23-.81 2.33h1.62z"/><path d="m90.7 155.78c-1.16 0-2.05-.61-2.07-1.66h1.2c.03.45.33.74.85.74s.84-.28.84-.68c0-1.21-2.88-.48-2.87-2.5 0-1.01.82-1.62 1.97-1.62s1.93.58 2 1.59h-1.23c-.02-.37-.32-.66-.8-.66-.44-.02-.77.2-.77.66 0 1.12 2.86.5 2.86 2.46 0 .88-.7 1.67-1.97 1.67z"/><path d="m97.25 155.78c-1.16 0-2.05-.61-2.07-1.66h1.2c.03.45.33.74.85.74s.84-.28.84-.68c0-1.21-2.88-.48-2.87-2.5 0-1.01.82-1.62 1.97-1.62s1.93.58 2 1.59h-1.23c-.02-.37-.32-.66-.8-.66-.44-.02-.77.2-.77.66 0 1.12 2.86.5 2.86 2.46 0 .88-.7 1.67-1.97 1.67z"/><path d="m104.45 155.78c-1.58 0-2.86-1.18-2.86-2.86s1.29-2.85 2.86-2.85 2.85 1.18 2.85 2.85-1.27 2.86-2.85 2.86zm0-1c1.01 0 1.7-.73 1.7-1.86s-.7-1.85-1.7-1.85-1.71.71-1.71 1.85.7 1.86 1.71 1.86z"/><path d="m112.42 150.07c1.24 0 2.25.66 2.62 1.81h-1.29c-.26-.54-.74-.8-1.34-.8-.98 0-1.67.71-1.67 1.85s.7 1.85 1.67 1.85c.6 0 1.08-.26 1.34-.81h1.29c-.38 1.15-1.38 1.81-2.62 1.81-1.61 0-2.83-1.18-2.83-2.85s1.22-2.85 2.83-2.85z"/><path d="m117.68 150.14h1.12v5.58h-1.12z"/><path d="m124.94 154.66h-2.22l-.37 1.06h-1.17l2.01-5.59h1.3l2.01 5.59h-1.18l-.37-1.06zm-1.11-3.23-.81 2.33h1.62z"/><path d="m128.03 150.14h4.09v.9h-1.49v4.68h-1.12v-4.68h-1.49v-.9z"/><path d="m134.54 150.14h1.12v5.58h-1.12z"/><path d="m141.1 155.78c-1.58 0-2.86-1.18-2.86-2.86s1.29-2.85 2.86-2.85 2.85 1.18 2.85 2.85-1.27 2.86-2.85 2.86zm0-1c1.01 0 1.7-.73 1.7-1.86s-.7-1.85-1.7-1.85-1.71.71-1.71 1.85.7 1.86 1.71 1.86z"/><path d="m151.33 150.13v5.59h-1.12l-2.54-3.83v3.83h-1.12v-5.59h1.12l2.54 3.84v-3.84z"/><path d="m82.1 115.47v10.5h-3.04v-6.7l-4.18 5.13h-.15l-4.19-5.13v6.7h-2.96v-10.5h3.35l3.94 5.04 3.97-5.04h3.25z"/><path d="m85.44 120.71c0-3.55 2.68-5.59 6.84-5.59s6.85 2.04 6.85 5.59-2.7 5.6-6.85 5.6-6.84-2.04-6.84-5.6zm10.57 0c0-1.98-1.42-3.1-3.73-3.1s-3.74 1.12-3.74 3.1 1.43 3.1 3.74 3.1 3.73-1.12 3.73-3.1z"/><path d="m111.38 125.96-2.78-3.31h-3.09v3.31h-3.04v-10.5h7.37c2.68 0 4.77 1.19 4.77 3.58 0 1.75-1.11 2.86-2.76 3.34l3.09 3.57h-3.55zm-1.77-5.53c1.09 0 1.89-.3 1.89-1.32s-.79-1.32-1.89-1.32h-4.11v2.64z"/><path d="m132.51 115.47v10.5h-3.04v-6.7l-4.18 5.13h-.15l-4.19-5.13v6.7h-2.96v-10.5h3.35l3.94 5.04 3.97-5.04h3.25z"/><path d="m135.85 120.71c0-3.55 2.68-5.59 6.84-5.59s6.85 2.04 6.85 5.59-2.7 5.6-6.85 5.6-6.84-2.04-6.84-5.6zm10.57 0c0-1.98-1.42-3.1-3.73-3.1s-3.74 1.12-3.74 3.1 1.43 3.1 3.74 3.1 3.73-1.12 3.73-3.1z"/><path d="m165.3 115.47v10.5h-2.68l-6.78-6.9v6.9h-2.96v-10.5h3.24l6.22 6.42v-6.42z"/></g></svg>